<svg width="31" height="30" viewBox="0 0 31 30" fill="none" xmlns="http://www.w3.org/2000/svg">
<path d="M16.6253 30C21.6984 30 26.3508 27.9021 29.4338 24.4468C31.2549 22.4059 29.2691 19.424 26.4547 19.9116C21.1502 20.8305 16.2596 17.142 16.2596 12.248C16.2596 9.41062 17.9383 6.84023 20.6034 5.4607C23.0991 4.16871 22.4713 0.727031 19.6357 0.250605C18.6427 0.084032 17.635 0.000149784 16.6253 0C7.51956 0 0.13501 6.71338 0.13501 15C0.13501 23.2828 7.51544 30 16.6253 30ZM16.6253 2.8125C17.4617 2.8125 18.28 2.88287 19.0741 3.01629C15.5467 4.84225 13.1677 8.29219 13.1677 12.248C13.1677 18.9187 19.8437 23.9198 27.0331 22.6744C24.5766 25.4276 20.8271 27.1875 16.6253 27.1875C9.22559 27.1875 3.22694 21.731 3.22694 15C3.22694 8.26904 9.22559 2.8125 16.6253 2.8125Z" fill="yellow"/>
</svg>
